<mxfile host="app.diagrams.net" modified="2023-04-20T02:09:21.710Z" agent="Mozilla/5.0 (Windows NT 10.0; Win64; x64) AppleWebKit/537.36 (KHTML, like Gecko) Chrome/106.0.0.0 Safari/537.36" version="21.2.1" etag="0QxrS_OkbhxqudI3O0jj" type="github">
  <diagram name="第 1 页" id="GK4Qb2BiEbd-JUFB3STL">
    <mxGraphModel>
      <root>
        <mxCell id="0" />
        <mxCell id="1" parent="0" />
      </root>
    </mxGraphModel>
  </diagram>
</mxfile>
